<svg xmlns="http://www.w3.org/2000/svg" width="122" height="122" viewBox="0 0 122 122" fill="none">
  <g filter="url(#filter0_d_344_35648)">
    <mask id="path-1-outside-1_344_35648" maskUnits="userSpaceOnUse" x="31.7031" y="24.9766" width="59" height="59" fill="black">
      <rect fill="white" x="31.7031" y="24.9766" width="59" height="59"/>
      <path d="M58.5659 27.3594C60.6919 26.5575 62.5804 27.2084 63.5962 27.5689L63.9624 27.6949L63.9668 27.6964C64.3073 27.813 64.6444 27.932 64.9746 28.0479C65.3105 28.1654 65.6487 28.2811 65.9971 28.4009C66.5485 28.5908 67.102 28.7807 67.6523 28.9722L67.6509 28.9737L71.2881 30.2188C72.2604 30.5514 73.233 30.8817 74.209 31.2134C74.5063 31.3145 74.8039 31.4156 75.1011 31.5167C76.1069 31.8587 77.1127 32.2013 78.1187 32.5421C79.0024 32.8415 79.8866 33.1411 80.77 33.4429L82.1191 33.9014C82.5361 34.0422 82.9522 34.185 83.3672 34.3277L83.7979 34.4727L84.4204 34.6866L84.7632 34.8023L84.9229 34.8565L85.0737 34.9283C86.2149 35.4651 86.8368 36.2538 87.2461 36.8677L87.6724 37.5064L87.7397 38.2711C87.7505 38.3941 87.7637 38.539 87.7705 38.7003C87.7766 38.8444 87.7769 38.9954 87.7778 39.1456L87.7793 39.2437V39.3477C87.7811 39.5708 87.782 39.792 87.7822 40.004L87.7837 40.4522V40.4551C87.7848 40.7733 87.7853 41.0911 87.7852 41.4073L87.791 42.5865V42.5909C87.7932 42.9081 87.794 43.2234 87.7939 43.5328L87.7954 43.9517V44.5963C87.7955 44.6549 87.7967 44.7144 87.7969 44.7735V45.1719L87.7661 45.3873C87.568 46.7627 86.8584 47.6414 86.2061 48.2364L85.7886 48.6173L85.2598 48.8194C85.1333 48.868 85.006 48.908 84.8804 48.9439C84.8756 49.2121 84.8625 49.5397 84.8013 49.8843C84.6453 50.7614 84.2481 51.3833 84.0483 51.692C84.0071 51.7621 83.9648 51.8321 83.9224 51.9044L83.8359 52.0508L83.7349 52.1856C83.5079 52.4879 83.2539 52.7806 82.9688 53.0601V62.6124C83.736 63.3428 84.3029 64.2318 84.646 65.2813L84.7324 65.5626L84.8203 65.8746L84.8394 66.1968C84.8503 66.3809 84.8563 66.5665 84.8599 66.755C85.4025 66.9313 85.8792 67.2075 86.3013 67.5577L86.5093 67.7393L86.7144 67.9298L86.8799 68.1539C87.2135 68.6045 87.4892 69.1227 87.6445 69.7432C87.7796 70.2834 87.7868 70.7723 87.7881 71.0411C87.7886 71.0894 87.7893 71.1148 87.7896 71.1392V71.2388L87.791 71.2447C87.7928 71.4698 87.7915 71.6923 87.791 71.9009C87.7914 72.0491 87.7919 72.1981 87.7925 72.3463V73.3043C87.7914 73.6897 87.7927 74.0786 87.7954 74.4747V75.4195L87.7969 75.421C87.7969 75.5602 87.7972 75.6996 87.7983 75.8384V75.8414C87.7999 76.0697 87.7985 76.2941 87.7969 76.505V77.0557L87.7661 77.2711C87.6868 77.812 87.5146 78.4017 87.1641 78.9791C86.8197 79.5461 86.3945 79.9507 86.0156 80.2447L85.7534 80.4483L85.4531 80.5889C84.6717 80.9563 83.9362 81.0266 83.4697 81.0372H83.0259C82.9864 81.0374 82.9462 81.0384 82.9058 81.0386H82.9028C82.628 81.0398 82.3542 81.038 82.0942 81.0372C81.9073 81.0376 81.7202 81.038 81.5332 81.0386H79.9424C79.3806 81.0382 78.8187 81.0406 78.2505 81.0416C77.2016 81.0431 76.1517 81.0435 75.104 81.043H71.2324C69.416 81.044 67.5988 81.0452 65.7817 81.0445C65.6559 81.0444 65.7014 81.0431 65.5737 81.043C65.0176 81.0428 64.4613 81.0433 63.9053 81.043C61.7375 81.0421 59.5694 81.0423 57.4014 81.0445C54.9638 81.0469 52.5255 81.0481 50.0874 81.0474H49.1147C48.1506 81.0472 47.1854 81.0477 46.2202 81.0489C45.1195 81.0503 44.0184 81.0505 42.917 81.0489C42.3582 81.0481 41.8008 81.0489 41.2456 81.0504C40.7269 81.0517 40.2088 81.0507 39.6914 81.0489C39.5134 81.0486 39.3357 81.0494 39.1582 81.0504C38.9042 81.0516 38.6519 81.049 38.4097 81.0474C38.336 81.0483 38.281 81.0494 38.2031 81.0504L38.1636 81.0518L38.124 81.0504C37.6502 81.0439 37.0872 80.9823 36.4863 80.753C35.8982 80.5283 35.4542 80.2114 35.1343 79.9503L34.8896 79.7496L34.6904 79.502C34.2926 79.0055 33.9987 78.442 33.8438 77.7911C33.7152 77.2506 33.7142 76.7503 33.7134 76.524L33.7119 76.4258C33.7117 76.4013 33.7109 76.3757 33.7104 76.3262V75.6641L33.709 75.2188V74.2608L33.7046 73.0904V72.1397C33.7046 72.002 33.7042 71.864 33.7031 71.7266V70.5093L33.7354 70.294C33.936 68.9243 34.6438 68.048 35.2954 67.4537L35.7129 67.0728L36.2402 66.8707C36.3667 66.8221 36.4941 66.7806 36.6196 66.7447C36.6244 66.4768 36.6391 66.1499 36.7002 65.8057C36.8614 64.8988 37.2799 64.2646 37.4722 63.9674C37.5073 63.9076 37.5429 63.8472 37.5791 63.7857L37.6641 63.6392L37.7651 63.5045C37.9922 63.2019 38.2458 62.9083 38.5312 62.6285V53.0748C37.6974 52.2803 37.0992 51.2994 36.769 50.1275L36.6812 49.8155L36.6621 49.4932C36.6511 49.3087 36.6452 49.1226 36.6416 48.9337C36.0082 48.7278 35.4636 48.3879 34.9922 47.9508L34.7871 47.7603L34.6201 47.5362C34.2866 47.0857 34.0123 46.5671 33.8569 45.9468C33.7218 45.4068 33.7147 44.9179 33.7134 44.649L33.7104 44.4512V43.7891L33.709 43.3438V42.3858L33.7046 41.2154V40.2647C33.7046 40.127 33.7042 39.989 33.7031 39.8516V38.6343L33.7354 38.419C33.7902 38.0449 33.8926 37.5702 34.1396 37.0626C34.3781 36.5729 34.6733 36.2146 34.875 35.9859L35.1416 35.6841L35.4771 35.463C36.1098 35.047 36.7847 34.7849 37.2656 34.6192L37.8677 34.4185L37.8691 34.4171C38.1018 34.3388 38.3339 34.2611 38.5605 34.1856C38.7241 34.1307 38.8892 34.0766 39.0527 34.0216C39.489 33.8749 39.925 33.7287 40.3594 33.5836L42.397 32.9009C42.653 32.8151 42.909 32.7288 43.1646 32.6431L47.8989 31.0347C48.5264 30.82 49.1543 30.6062 49.7812 30.3931C49.915 30.3477 49.9157 30.3472 50.0522 30.3008C50.2273 30.2414 50.4031 30.1816 50.5781 30.1221C50.861 30.026 51.1446 29.9298 51.4277 29.8336C52.2299 29.5609 53.032 29.2873 53.8345 29.0147C54.3337 28.8451 54.8337 28.6762 55.333 28.5064C55.5195 28.443 55.7075 28.3793 55.894 28.316C56.069 28.2566 56.245 28.1968 56.4199 28.1373C56.5893 28.0797 56.7601 28.0216 56.9297 27.9644C57.2932 27.8412 57.6303 27.7215 57.9536 27.5967L57.9727 27.5894C58.0405 27.5638 58.1094 27.5396 58.1792 27.5133C58.2853 27.4729 58.3867 27.4316 58.4839 27.3917L58.5659 27.3594Z"/>
    </mask>
    <path d="M58.5659 27.3594C60.6919 26.5575 62.5804 27.2084 63.5962 27.5689L63.9624 27.6949L63.9668 27.6964C64.3073 27.813 64.6444 27.932 64.9746 28.0479C65.3105 28.1654 65.6487 28.2811 65.9971 28.4009C66.5485 28.5908 67.102 28.7807 67.6523 28.9722L67.6509 28.9737L71.2881 30.2188C72.2604 30.5514 73.233 30.8817 74.209 31.2134C74.5063 31.3145 74.8039 31.4156 75.1011 31.5167C76.1069 31.8587 77.1127 32.2013 78.1187 32.5421C79.0024 32.8415 79.8866 33.1411 80.77 33.4429L82.1191 33.9014C82.5361 34.0422 82.9522 34.185 83.3672 34.3277L83.7979 34.4727L84.4204 34.6866L84.7632 34.8023L84.9229 34.8565L85.0737 34.9283C86.2149 35.4651 86.8368 36.2538 87.2461 36.8677L87.6724 37.5064L87.7397 38.2711C87.7505 38.3941 87.7637 38.539 87.7705 38.7003C87.7766 38.8444 87.7769 38.9954 87.7778 39.1456L87.7793 39.2437V39.3477C87.7811 39.5708 87.782 39.792 87.7822 40.004L87.7837 40.4522V40.4551C87.7848 40.7733 87.7853 41.0911 87.7852 41.4073L87.791 42.5865V42.5909C87.7932 42.9081 87.794 43.2234 87.7939 43.5328L87.7954 43.9517V44.5963C87.7955 44.6549 87.7967 44.7144 87.7969 44.7735V45.1719L87.7661 45.3873C87.568 46.7627 86.8584 47.6414 86.2061 48.2364L85.7886 48.6173L85.2598 48.8194C85.1333 48.868 85.006 48.908 84.8804 48.9439C84.8756 49.2121 84.8625 49.5397 84.8013 49.8843C84.6453 50.7614 84.2481 51.3833 84.0483 51.692C84.0071 51.7621 83.9648 51.8321 83.9224 51.9044L83.8359 52.0508L83.7349 52.1856C83.5079 52.4879 83.2539 52.7806 82.9688 53.0601V62.6124C83.736 63.3428 84.3029 64.2318 84.646 65.2813L84.7324 65.5626L84.8203 65.8746L84.8394 66.1968C84.8503 66.3809 84.8563 66.5665 84.8599 66.755C85.4025 66.9313 85.8792 67.2075 86.3013 67.5577L86.5093 67.7393L86.7144 67.9298L86.8799 68.1539C87.2135 68.6045 87.4892 69.1227 87.6445 69.7432C87.7796 70.2834 87.7868 70.7723 87.7881 71.0411C87.7886 71.0894 87.7893 71.1148 87.7896 71.1392V71.2388L87.791 71.2447C87.7928 71.4698 87.7915 71.6923 87.791 71.9009C87.7914 72.0491 87.7919 72.1981 87.7925 72.3463V73.3043C87.7914 73.6897 87.7927 74.0786 87.7954 74.4747V75.4195L87.7969 75.421C87.7969 75.5602 87.7972 75.6996 87.7983 75.8384V75.8414C87.7999 76.0697 87.7985 76.2941 87.7969 76.505V77.0557L87.7661 77.2711C87.6868 77.812 87.5146 78.4017 87.1641 78.9791C86.8197 79.5461 86.3945 79.9507 86.0156 80.2447L85.7534 80.4483L85.4531 80.5889C84.6717 80.9563 83.9362 81.0266 83.4697 81.0372H83.0259C82.9864 81.0374 82.9462 81.0384 82.9058 81.0386H82.9028C82.628 81.0398 82.3542 81.038 82.0942 81.0372C81.9073 81.0376 81.7202 81.038 81.5332 81.0386H79.9424C79.3806 81.0382 78.8187 81.0406 78.2505 81.0416C77.2016 81.0431 76.1517 81.0435 75.104 81.043H71.2324C69.416 81.044 67.5988 81.0452 65.7817 81.0445C65.6559 81.0444 65.7014 81.0431 65.5737 81.043C65.0176 81.0428 64.4613 81.0433 63.9053 81.043C61.7375 81.0421 59.5694 81.0423 57.4014 81.0445C54.9638 81.0469 52.5255 81.0481 50.0874 81.0474H49.1147C48.1506 81.0472 47.1854 81.0477 46.2202 81.0489C45.1195 81.0503 44.0184 81.0505 42.917 81.0489C42.3582 81.0481 41.8008 81.0489 41.2456 81.0504C40.7269 81.0517 40.2088 81.0507 39.6914 81.0489C39.5134 81.0486 39.3357 81.0494 39.1582 81.0504C38.9042 81.0516 38.6519 81.049 38.4097 81.0474C38.336 81.0483 38.281 81.0494 38.2031 81.0504L38.1636 81.0518L38.124 81.0504C37.6502 81.0439 37.0872 80.9823 36.4863 80.753C35.8982 80.5283 35.4542 80.2114 35.1343 79.9503L34.8896 79.7496L34.6904 79.502C34.2926 79.0055 33.9987 78.442 33.8438 77.7911C33.7152 77.2506 33.7142 76.7503 33.7134 76.524L33.7119 76.4258C33.7117 76.4013 33.7109 76.3757 33.7104 76.3262V75.6641L33.709 75.2188V74.2608L33.7046 73.0904V72.1397C33.7046 72.002 33.7042 71.864 33.7031 71.7266V70.5093L33.7354 70.294C33.936 68.9243 34.6438 68.048 35.2954 67.4537L35.7129 67.0728L36.2402 66.8707C36.3667 66.8221 36.4941 66.7806 36.6196 66.7447C36.6244 66.4768 36.6391 66.1499 36.7002 65.8057C36.8614 64.8988 37.2799 64.2646 37.4722 63.9674C37.5073 63.9076 37.5429 63.8472 37.5791 63.7857L37.6641 63.6392L37.7651 63.5045C37.9922 63.2019 38.2458 62.9083 38.5312 62.6285V53.0748C37.6974 52.2803 37.0992 51.2994 36.769 50.1275L36.6812 49.8155L36.6621 49.4932C36.6511 49.3087 36.6452 49.1226 36.6416 48.9337C36.0082 48.7278 35.4636 48.3879 34.9922 47.9508L34.7871 47.7603L34.6201 47.5362C34.2866 47.0857 34.0123 46.5671 33.8569 45.9468C33.7218 45.4068 33.7147 44.9179 33.7134 44.649L33.7104 44.4512V43.7891L33.709 43.3438V42.3858L33.7046 41.2154V40.2647C33.7046 40.127 33.7042 39.989 33.7031 39.8516V38.6343L33.7354 38.419C33.7902 38.0449 33.8926 37.5702 34.1396 37.0626C34.3781 36.5729 34.6733 36.2146 34.875 35.9859L35.1416 35.6841L35.4771 35.463C36.1098 35.047 36.7847 34.7849 37.2656 34.6192L37.8677 34.4185L37.8691 34.4171C38.1018 34.3388 38.3339 34.2611 38.5605 34.1856C38.7241 34.1307 38.8892 34.0766 39.0527 34.0216C39.489 33.8749 39.925 33.7287 40.3594 33.5836L42.397 32.9009C42.653 32.8151 42.909 32.7288 43.1646 32.6431L47.8989 31.0347C48.5264 30.82 49.1543 30.6062 49.7812 30.3931C49.915 30.3477 49.9157 30.3472 50.0522 30.3008C50.2273 30.2414 50.4031 30.1816 50.5781 30.1221C50.861 30.026 51.1446 29.9298 51.4277 29.8336C52.2299 29.5609 53.032 29.2873 53.8345 29.0147C54.3337 28.8451 54.8337 28.6762 55.333 28.5064C55.5195 28.443 55.7075 28.3793 55.894 28.316C56.069 28.2566 56.245 28.1968 56.4199 28.1373C56.5893 28.0797 56.7601 28.0216 56.9297 27.9644C57.2932 27.8412 57.6303 27.7215 57.9536 27.5967L57.9727 27.5894C58.0405 27.5638 58.1094 27.5396 58.1792 27.5133C58.2853 27.4729 58.3867 27.4316 58.4839 27.3917L58.5659 27.3594Z" fill="url(#paint0_linear_344_35648)"/>
    <path d="M58.5659 27.3594C60.6919 26.5575 62.5804 27.2084 63.5962 27.5689L63.9624 27.6949L63.9668 27.6964C64.3073 27.813 64.6444 27.932 64.9746 28.0479C65.3105 28.1654 65.6487 28.2811 65.9971 28.4009C66.5485 28.5908 67.102 28.7807 67.6523 28.9722L67.6509 28.9737L71.2881 30.2188C72.2604 30.5514 73.233 30.8817 74.209 31.2134C74.5063 31.3145 74.8039 31.4156 75.1011 31.5167C76.1069 31.8587 77.1127 32.2013 78.1187 32.5421C79.0024 32.8415 79.8866 33.1411 80.77 33.4429L82.1191 33.9014C82.5361 34.0422 82.9522 34.185 83.3672 34.3277L83.7979 34.4727L84.4204 34.6866L84.7632 34.8023L84.9229 34.8565L85.0737 34.9283C86.2149 35.4651 86.8368 36.2538 87.2461 36.8677L87.6724 37.5064L87.7397 38.2711C87.7505 38.3941 87.7637 38.539 87.7705 38.7003C87.7766 38.8444 87.7769 38.9954 87.7778 39.1456L87.7793 39.2437V39.3477C87.7811 39.5708 87.782 39.792 87.7822 40.004L87.7837 40.4522V40.4551C87.7848 40.7733 87.7853 41.0911 87.7852 41.4073L87.791 42.5865V42.5909C87.7932 42.9081 87.794 43.2234 87.7939 43.5328L87.7954 43.9517V44.5963C87.7955 44.6549 87.7967 44.7144 87.7969 44.7735V45.1719L87.7661 45.3873C87.568 46.7627 86.8584 47.6414 86.2061 48.2364L85.7886 48.6173L85.2598 48.8194C85.1333 48.868 85.006 48.908 84.8804 48.9439C84.8756 49.2121 84.8625 49.5397 84.8013 49.8843C84.6453 50.7614 84.2481 51.3833 84.0483 51.692C84.0071 51.7621 83.9648 51.8321 83.9224 51.9044L83.8359 52.0508L83.7349 52.1856C83.5079 52.4879 83.2539 52.7806 82.9688 53.0601V62.6124C83.736 63.3428 84.3029 64.2318 84.646 65.2813L84.7324 65.5626L84.8203 65.8746L84.8394 66.1968C84.8503 66.3809 84.8563 66.5665 84.8599 66.755C85.4025 66.9313 85.8792 67.2075 86.3013 67.5577L86.5093 67.7393L86.7144 67.9298L86.8799 68.1539C87.2135 68.6045 87.4892 69.1227 87.6445 69.7432C87.7796 70.2834 87.7868 70.7723 87.7881 71.0411C87.7886 71.0894 87.7893 71.1148 87.7896 71.1392V71.2388L87.791 71.2447C87.7928 71.4698 87.7915 71.6923 87.791 71.9009C87.7914 72.0491 87.7919 72.1981 87.7925 72.3463V73.3043C87.7914 73.6897 87.7927 74.0786 87.7954 74.4747V75.4195L87.7969 75.421C87.7969 75.5602 87.7972 75.6996 87.7983 75.8384V75.8414C87.7999 76.0697 87.7985 76.2941 87.7969 76.505V77.0557L87.7661 77.2711C87.6868 77.812 87.5146 78.4017 87.1641 78.9791C86.8197 79.5461 86.3945 79.9507 86.0156 80.2447L85.7534 80.4483L85.4531 80.5889C84.6717 80.9563 83.9362 81.0266 83.4697 81.0372H83.0259C82.9864 81.0374 82.9462 81.0384 82.9058 81.0386H82.9028C82.628 81.0398 82.3542 81.038 82.0942 81.0372C81.9073 81.0376 81.7202 81.038 81.5332 81.0386H79.9424C79.3806 81.0382 78.8187 81.0406 78.2505 81.0416C77.2016 81.0431 76.1517 81.0435 75.104 81.043H71.2324C69.416 81.044 67.5988 81.0452 65.7817 81.0445C65.6559 81.0444 65.7014 81.0431 65.5737 81.043C65.0176 81.0428 64.4613 81.0433 63.9053 81.043C61.7375 81.0421 59.5694 81.0423 57.4014 81.0445C54.9638 81.0469 52.5255 81.0481 50.0874 81.0474H49.1147C48.1506 81.0472 47.1854 81.0477 46.2202 81.0489C45.1195 81.0503 44.0184 81.0505 42.917 81.0489C42.3582 81.0481 41.8008 81.0489 41.2456 81.0504C40.7269 81.0517 40.2088 81.0507 39.6914 81.0489C39.5134 81.0486 39.3357 81.0494 39.1582 81.0504C38.9042 81.0516 38.6519 81.049 38.4097 81.0474C38.336 81.0483 38.281 81.0494 38.2031 81.0504L38.1636 81.0518L38.124 81.0504C37.6502 81.0439 37.0872 80.9823 36.4863 80.753C35.8982 80.5283 35.4542 80.2114 35.1343 79.9503L34.8896 79.7496L34.6904 79.502C34.2926 79.0055 33.9987 78.442 33.8438 77.7911C33.7152 77.2506 33.7142 76.7503 33.7134 76.524L33.7119 76.4258C33.7117 76.4013 33.7109 76.3757 33.7104 76.3262V75.6641L33.709 75.2188V74.2608L33.7046 73.0904V72.1397C33.7046 72.002 33.7042 71.864 33.7031 71.7266V70.5093L33.7354 70.294C33.936 68.9243 34.6438 68.048 35.2954 67.4537L35.7129 67.0728L36.2402 66.8707C36.3667 66.8221 36.4941 66.7806 36.6196 66.7447C36.6244 66.4768 36.6391 66.1499 36.7002 65.8057C36.8614 64.8988 37.2799 64.2646 37.4722 63.9674C37.5073 63.9076 37.5429 63.8472 37.5791 63.7857L37.6641 63.6392L37.7651 63.5045C37.9922 63.2019 38.2458 62.9083 38.5312 62.6285V53.0748C37.6974 52.2803 37.0992 51.2994 36.769 50.1275L36.6812 49.8155L36.6621 49.4932C36.6511 49.3087 36.6452 49.1226 36.6416 48.9337C36.0082 48.7278 35.4636 48.3879 34.9922 47.9508L34.7871 47.7603L34.6201 47.5362C34.2866 47.0857 34.0123 46.5671 33.8569 45.9468C33.7218 45.4068 33.7147 44.9179 33.7134 44.649L33.7104 44.4512V43.7891L33.709 43.3438V42.3858L33.7046 41.2154V40.2647C33.7046 40.127 33.7042 39.989 33.7031 39.8516V38.6343L33.7354 38.419C33.7902 38.0449 33.8926 37.5702 34.1396 37.0626C34.3781 36.5729 34.6733 36.2146 34.875 35.9859L35.1416 35.6841L35.4771 35.463C36.1098 35.047 36.7847 34.7849 37.2656 34.6192L37.8677 34.4185L37.8691 34.4171C38.1018 34.3388 38.3339 34.2611 38.5605 34.1856C38.7241 34.1307 38.8892 34.0766 39.0527 34.0216C39.489 33.8749 39.925 33.7287 40.3594 33.5836L42.397 32.9009C42.653 32.8151 42.909 32.7288 43.1646 32.6431L47.8989 31.0347C48.5264 30.82 49.1543 30.6062 49.7812 30.3931C49.915 30.3477 49.9157 30.3472 50.0522 30.3008C50.2273 30.2414 50.4031 30.1816 50.5781 30.1221C50.861 30.026 51.1446 29.9298 51.4277 29.8336C52.2299 29.5609 53.032 29.2873 53.8345 29.0147C54.3337 28.8451 54.8337 28.6762 55.333 28.5064C55.5195 28.443 55.7075 28.3793 55.894 28.316C56.069 28.2566 56.245 28.1968 56.4199 28.1373C56.5893 28.0797 56.7601 28.0216 56.9297 27.9644C57.2932 27.8412 57.6303 27.7215 57.9536 27.5967L57.9727 27.5894C58.0405 27.5638 58.1094 27.5396 58.1792 27.5133C58.2853 27.4729 58.3867 27.4316 58.4839 27.3917L58.5659 27.3594Z" stroke="#FFFEFD" stroke-width="4" mask="url(#path-1-outside-1_344_35648)"/>
    <path d="M62.6223 30.4043C62.7467 30.4471 62.8712 30.4897 62.9957 30.5322C63.3265 30.6456 63.6566 30.761 63.9866 30.8768C64.3319 30.9976 64.6778 31.1163 65.0237 31.2353C65.5718 31.424 66.1195 31.6136 66.6669 31.8042C67.5086 32.0971 68.352 32.3849 69.1958 32.6717C69.5699 32.799 69.9437 32.927 70.3175 33.0549C71.2929 33.3885 72.2689 33.7204 73.2449 34.0522C73.5421 34.1532 73.8393 34.2543 74.1365 34.3554C75.1434 34.6977 76.1504 35.0395 77.1576 35.3807C78.0393 35.6795 78.9207 35.9792 79.8017 36.2802C80.2547 36.4349 80.7078 36.5892 81.1613 36.7423C81.574 36.8816 81.9861 37.0221 82.3979 37.1637C82.5473 37.2148 82.6968 37.2655 82.8465 37.3156C83.0502 37.3838 83.2531 37.4538 83.456 37.5242C83.6256 37.5818 83.6256 37.5818 83.7985 37.6407C84.2376 37.8472 84.486 38.1314 84.752 38.5305C84.7771 38.8168 84.7771 38.8168 84.7793 39.1731C84.7802 39.2706 84.7802 39.2706 84.7812 39.37C84.783 39.5849 84.7833 39.7998 84.7835 40.0148C84.7841 40.1643 84.7848 40.3139 84.7854 40.4635C84.7865 40.7773 84.7869 41.091 84.7868 41.4047C84.7868 41.806 84.7893 42.2073 84.7926 42.6086C84.7946 42.9177 84.795 43.2268 84.7949 43.5359C84.7951 43.6838 84.796 43.8317 84.7974 43.9796C84.7993 44.1869 84.7987 44.3941 84.7976 44.6015C84.7979 44.7193 84.7981 44.8371 84.7984 44.9585C84.7322 45.4182 84.5249 45.7082 84.1855 46.0177C83.7462 46.1865 83.3135 46.1535 82.8477 46.1418C82.7515 46.1406 82.6552 46.1393 82.5561 46.138C82.3193 46.1347 82.0825 46.1301 81.8458 46.1243C81.8478 46.2164 81.8497 46.3085 81.8517 46.4035C81.8586 46.7489 81.8629 47.0943 81.8664 47.4398C81.8683 47.5886 81.8708 47.7374 81.8741 47.8863C81.908 49.4698 81.908 49.4698 81.4708 50.1555C81.4268 50.2303 81.3828 50.3051 81.3375 50.3822C81.0051 50.825 80.637 51.1834 80.1583 51.468C80.0964 51.468 80.0345 51.468 79.9708 51.468C79.9708 55.6755 79.9708 59.883 79.9708 64.218C80.1255 64.2799 80.2802 64.3418 80.4395 64.4055C81.1544 64.9065 81.6098 65.5361 81.8458 66.3743C81.861 66.6286 81.8678 66.8726 81.8641 67.1264C81.8637 67.2314 81.8637 67.2314 81.8633 67.3384C81.8623 67.56 81.8599 67.7816 81.8575 68.0032C81.8566 68.1542 81.8557 68.3052 81.8549 68.4562C81.8529 68.8247 81.8497 69.1932 81.8458 69.5618C81.9053 69.5598 81.9649 69.5578 82.0262 69.5558C82.2981 69.548 82.5699 69.5431 82.8419 69.5383C82.9355 69.5352 83.0292 69.532 83.1257 69.5288C83.6834 69.5214 84.0423 69.5394 84.4708 69.9368C84.7535 70.3186 84.7879 70.5986 84.7899 71.0694C84.7909 71.1669 84.7909 71.1669 84.7919 71.2664C84.7936 71.4803 84.7932 71.6941 84.7927 71.9081C84.7931 72.0574 84.7936 72.2067 84.7942 72.356C84.795 72.6686 84.7948 72.9813 84.7939 73.2939C84.7928 73.6937 84.7947 74.0935 84.7974 74.4933C84.7991 74.8016 84.7991 75.1099 84.7986 75.4182C84.7986 75.5655 84.7991 75.7129 84.8003 75.8603C84.8017 76.0667 84.8007 76.273 84.7991 76.4795C84.7991 76.6553 84.7991 76.6553 84.799 76.8348C84.7311 77.2982 84.5476 77.5857 84.178 77.8724C83.8262 78.0379 83.5097 78.0382 83.1289 78.0349C83.0503 78.0353 82.9718 78.0358 82.8908 78.0362C82.6264 78.0374 82.362 78.0365 82.0975 78.0356C81.9065 78.036 81.7154 78.0365 81.5244 78.0371C80.9985 78.0385 80.4726 78.0381 79.9467 78.0374C79.3799 78.037 78.8132 78.0381 78.2464 78.0391C77.1999 78.0406 76.1534 78.0408 75.1069 78.0404C74.1401 78.0399 73.1733 78.04 72.2065 78.0405C72.0769 78.0406 71.9473 78.0407 71.8177 78.0408C71.6224 78.0409 71.4271 78.041 71.2318 78.0411C69.4158 78.0421 67.5998 78.0425 65.7837 78.0418C65.7153 78.0418 65.6468 78.0417 65.5762 78.0417C65.0201 78.0415 64.464 78.0412 63.9078 78.041C61.7383 78.04 59.5688 78.0408 57.3993 78.043C54.9626 78.0454 52.5259 78.0466 50.0892 78.046C49.8295 78.0459 49.5698 78.0458 49.3101 78.0458C49.2461 78.0458 49.1822 78.0458 49.1163 78.0457C48.1501 78.0455 47.184 78.0463 46.2178 78.0475C45.1193 78.0489 44.0208 78.0489 42.9222 78.0473C42.3615 78.0465 41.8007 78.0463 41.24 78.0477C40.727 78.049 40.214 78.0486 39.701 78.0468C39.5151 78.0464 39.3292 78.0467 39.1433 78.0477C38.8911 78.0489 38.6391 78.0478 38.387 78.0462C38.3143 78.0471 38.2416 78.048 38.1667 78.0489C37.6817 78.0424 37.4074 77.9297 37.0333 77.6243C36.7364 77.254 36.7162 76.9592 36.7142 76.4916C36.7132 76.3941 36.7132 76.3941 36.7122 76.2946C36.7105 76.0807 36.7109 75.8669 36.7114 75.6529C36.711 75.5036 36.7105 75.3543 36.7099 75.205C36.7091 74.8924 36.7093 74.5798 36.7102 74.2671C36.7113 73.8673 36.7094 73.4675 36.7067 73.0677C36.7049 72.7594 36.705 72.4511 36.7055 72.1428C36.7055 71.9955 36.705 71.8481 36.7038 71.7007C36.7024 71.4943 36.7034 71.288 36.705 71.0816C36.705 70.9643 36.705 70.847 36.705 70.7262C36.7722 70.2677 36.9799 69.9772 37.3186 69.6683C37.7578 69.4995 38.1906 69.5326 38.6563 69.5442C38.7526 69.5454 38.8488 69.5467 38.948 69.548C39.1848 69.5513 39.4215 69.5559 39.6583 69.5618C39.6563 69.4696 39.6544 69.3775 39.6523 69.2825C39.6455 68.9371 39.6412 68.5917 39.6377 68.2463C39.6358 68.0974 39.6333 67.9486 39.63 67.7998C39.5961 66.2162 39.5961 66.2162 40.0333 65.5305C40.0773 65.4557 40.1213 65.3809 40.1666 65.3038C40.499 64.861 40.8671 64.5026 41.3458 64.218C41.4077 64.218 41.4695 64.218 41.5333 64.218C41.5333 60.0105 41.5333 55.803 41.5333 51.468C41.3786 51.4061 41.2239 51.3443 41.0645 51.2805C40.3497 50.7795 39.8943 50.1499 39.6583 49.3118C39.6431 49.0574 39.6363 48.8134 39.64 48.5596C39.6402 48.4896 39.6405 48.4196 39.6408 48.3476C39.6418 48.126 39.6442 47.9044 39.6466 47.6828C39.6475 47.5318 39.6484 47.3808 39.6491 47.2298C39.6512 46.8613 39.6544 46.4928 39.6583 46.1243C39.5988 46.1262 39.5392 46.1282 39.4779 46.1302C39.206 46.138 38.9341 46.1429 38.6622 46.1477C38.5685 46.1508 38.4749 46.154 38.3784 46.1572C37.8207 46.1646 37.4617 46.1466 37.0333 45.7493C36.7505 45.3674 36.7162 45.0874 36.7142 44.6166C36.7135 44.5516 36.7129 44.4866 36.7122 44.4196C36.7105 44.2057 36.7109 43.9919 36.7114 43.7779C36.711 43.6286 36.7105 43.4793 36.7099 43.33C36.7091 43.0174 36.7093 42.7048 36.7102 42.3921C36.7113 41.9923 36.7094 41.5925 36.7067 41.1927C36.7049 40.8844 36.705 40.5761 36.7055 40.2678C36.7055 40.1205 36.705 39.9731 36.7038 39.8257C36.7024 39.6193 36.7034 39.413 36.705 39.2066C36.705 39.0893 36.705 38.972 36.705 38.8512C36.7632 38.4542 36.8615 38.2691 37.127 37.968C37.5807 37.6697 38.1029 37.4995 38.6155 37.3303C38.7202 37.295 38.7202 37.295 38.8271 37.2589C39.057 37.1815 39.2871 37.1049 39.5173 37.0283C39.6815 36.9732 39.8457 36.918 40.0098 36.8628C40.4436 36.717 40.8776 36.5719 41.3116 36.4269C41.9921 36.1994 42.6723 35.9709 43.3526 35.7426C43.6081 35.6569 43.8637 35.5712 44.1193 35.4855C45.7058 34.9535 47.2893 34.4129 48.8724 33.8709C49.4973 33.657 50.1225 33.444 50.7479 33.2314C50.8819 33.1859 50.8819 33.1859 51.0185 33.1394C51.1936 33.0799 51.3687 33.0205 51.5438 32.961C51.8274 32.8647 52.1109 32.7683 52.3943 32.6719C53.1967 32.3992 53.999 32.1265 54.8014 31.8539C55.3013 31.6841 55.8011 31.5142 56.301 31.3442C56.4875 31.2808 56.6741 31.2174 56.8606 31.1541C57.0362 31.0944 57.2118 31.0348 57.3874 30.975C57.5546 30.9182 57.7218 30.8615 57.8892 30.8051C58.274 30.6747 58.6561 30.5404 59.0352 30.3942C59.1051 30.3678 59.1749 30.3414 59.2469 30.3142C59.374 30.2658 59.5006 30.216 59.6264 30.1643C60.6616 29.7738 61.6199 30.0482 62.6223 30.4043ZM59.8827 33.1764C59.7674 33.2153 59.6521 33.2543 59.5332 33.2945C59.4076 33.3379 59.282 33.3813 59.1565 33.4248C59.0249 33.4696 58.8934 33.5143 58.7618 33.559C58.4099 33.6787 58.0584 33.7994 57.707 33.9203C57.3406 34.0461 56.9739 34.171 56.6072 34.2959C55.9599 34.5166 55.3128 34.7381 54.6659 34.96C54.1119 35.15 53.5577 35.3394 53.0034 35.5283C52.557 35.6805 52.1107 35.8327 51.6646 35.9854C50.3196 36.4457 48.9733 36.9022 47.627 37.3586C46.1156 37.8712 44.6041 38.3838 43.0936 38.8991C42.936 38.9529 42.7784 39.0066 42.6208 39.0603C41.5996 39.4083 40.5814 39.7638 39.5645 40.1243C39.5645 41.1761 39.5645 42.228 39.5645 43.3118C53.5483 43.3118 67.532 43.3118 81.9395 43.3118C81.9395 42.2599 81.9395 41.208 81.9395 40.1243C81.3028 39.9074 80.6661 39.6906 80.0294 39.4739C79.9313 39.4405 79.8333 39.4071 79.7323 39.3727C78.599 38.9869 77.4656 38.6012 76.3321 38.2159C76.2346 38.1828 76.1371 38.1497 76.0367 38.1155C75.8406 38.0489 75.6446 37.9823 75.4485 37.9156C73.8629 37.3767 72.2775 36.8369 70.6927 36.2952C69.741 35.97 68.789 35.6454 67.8368 35.3218C67.7371 35.2879 67.6374 35.254 67.5347 35.2191C67.0316 35.0481 66.5285 34.8773 66.0254 34.7067C65.1182 34.399 64.2117 34.0895 63.3075 33.7731C63.1541 33.7196 63.0007 33.6661 62.8473 33.6127C62.5681 33.5155 62.2894 33.4171 62.0109 33.3182C61.8877 33.2752 61.7645 33.2322 61.6412 33.1893C61.5365 33.1523 61.4318 33.1153 61.324 33.0772C60.7976 32.936 60.3929 33.0019 59.8827 33.1764ZM42.4708 46.1243C42.3614 47.5316 42.3614 47.5316 42.6583 48.843C42.9561 48.9423 43.169 48.9492 43.4819 48.9504C43.5933 48.951 43.7046 48.9516 43.8194 48.9522C43.9398 48.9523 44.0602 48.9524 44.1843 48.9525C44.3696 48.953 44.3696 48.953 44.5587 48.9534C44.8203 48.954 45.0819 48.9542 45.3434 48.9541C45.6783 48.9541 46.0132 48.9554 46.3481 48.957C46.6678 48.9583 46.9876 48.9582 47.3073 48.9584C47.4877 48.9594 47.4877 48.9594 47.6716 48.9604C47.7833 48.9601 47.895 48.9598 48.0101 48.9595C48.1083 48.9597 48.2066 48.9598 48.3078 48.9599C48.5703 48.9362 48.7235 48.8988 48.9395 48.7493C49.2164 47.9186 49.0333 46.9998 49.0333 46.1243C46.8677 46.1243 44.702 46.1243 42.4708 46.1243ZM51.8458 46.1243C51.8148 47.1761 51.7839 48.228 51.752 49.3118C51.1044 50.7689 51.1044 50.7689 50.3802 51.1326C50.1059 51.3125 49.9908 51.4044 49.8915 51.7203C49.86 52.0467 49.8557 52.364 49.8601 52.6919C49.8585 52.8152 49.8569 52.9386 49.8552 53.0658C49.8509 53.4032 49.852 53.7405 49.8544 54.078C49.8558 54.3602 49.8545 54.6423 49.8533 54.9244C49.8503 55.5902 49.8516 56.256 49.8556 56.9218C49.8598 57.6078 49.8575 58.2935 49.8519 58.9795C49.8472 59.5693 49.8462 60.1591 49.8483 60.749C49.8495 61.1009 49.8494 61.4527 49.8459 61.8046C49.8422 62.1972 49.8462 62.5894 49.851 62.982C49.8489 63.098 49.8469 63.214 49.8448 63.3335C49.853 63.9424 49.853 63.9424 50.1794 64.4312C50.4159 64.596 50.6569 64.734 50.9083 64.8743C51.1368 65.1236 51.1368 65.1236 51.2833 65.3489C51.3587 65.4607 51.3587 65.4607 51.4356 65.5748C51.7117 66.0823 51.7816 66.5556 51.7909 67.1264C51.7927 67.1964 51.7945 67.2664 51.7964 67.3384C51.8019 67.56 51.8063 67.7816 51.8106 68.0032C51.8142 68.1542 51.8179 68.3052 51.8216 68.4562C51.8307 68.8247 51.8382 69.1932 51.8458 69.5618C52.7739 69.5618 53.702 69.5618 54.6583 69.5618C54.6583 66.1586 54.6583 62.7555 54.6583 59.2493C54.318 59.2183 53.9777 59.1874 53.627 59.1555C53.2238 58.9875 53.0719 58.7909 52.877 58.4055C52.8397 58.1301 52.8397 58.1301 52.8419 57.843C52.8412 57.7483 52.8404 57.6535 52.8397 57.5559C52.8832 57.2351 52.9605 57.0674 53.1583 56.8118C53.5205 56.5468 53.776 56.4952 54.2212 56.4948C54.401 56.4936 54.401 56.4936 54.5845 56.4924C54.7166 56.4929 54.8488 56.4935 54.9809 56.4941C55.1206 56.4937 55.2603 56.4932 55.4 56.4926C55.7789 56.4913 56.1577 56.4918 56.5366 56.4927C56.9333 56.4934 57.3299 56.4928 57.7266 56.4923C58.3927 56.4918 59.0588 56.4925 59.7249 56.4938C60.4948 56.4954 61.2647 56.4949 62.0346 56.4933C62.6958 56.492 63.357 56.4919 64.0183 56.4926C64.4131 56.493 64.8079 56.4931 65.2028 56.4922C65.574 56.4914 65.9452 56.4919 66.3164 56.4935C66.4525 56.4939 66.5887 56.4938 66.7249 56.4932C66.9109 56.4924 67.0969 56.4936 67.2828 56.4948C67.3869 56.4949 67.4909 56.495 67.5981 56.4951C67.9151 56.5353 68.0895 56.6242 68.3458 56.8118C68.6116 57.1553 68.6655 57.4128 68.6622 57.843C68.6629 57.9377 68.6636 58.0325 68.6644 58.1301C68.6106 58.5264 68.4573 58.7767 68.1583 59.0383C67.877 59.1555 67.877 59.1555 66.8458 59.2493C66.8458 62.6524 66.8458 66.0555 66.8458 69.5618C67.7739 69.5618 68.702 69.5618 69.6583 69.5618C69.6607 69.3414 69.6631 69.1211 69.6656 68.8941C69.6692 68.6782 69.6735 68.4622 69.6777 68.2463C69.6804 68.0974 69.6824 67.9486 69.6837 67.7998C69.6986 66.2168 69.6986 66.2168 70.127 65.5305C70.1699 65.4557 70.2128 65.3809 70.257 65.3038C70.5163 64.9511 70.7311 64.7507 71.1239 64.5534C71.3982 64.3735 71.5133 64.2816 71.6126 63.9657C71.6441 63.6393 71.6484 63.322 71.644 62.9941C71.6464 62.8091 71.6464 62.8091 71.6489 62.6203C71.6531 62.2828 71.652 61.9455 71.6497 61.608C71.6483 61.3258 71.6495 61.0437 71.6508 60.7616C71.6538 60.0958 71.6525 59.43 71.6484 58.7642C71.6443 58.0782 71.6466 57.3925 71.6522 56.7065C71.6569 56.1167 71.6578 55.5269 71.6558 54.937C71.6546 54.5851 71.6547 54.2333 71.6582 53.8814C71.6619 53.4888 71.6579 53.0966 71.6531 52.704C71.6552 52.588 71.6572 52.472 71.6593 52.3525C71.6511 51.7436 71.6511 51.7436 71.3246 51.2548C71.0882 51.09 70.8472 50.952 70.5958 50.8118C70.3673 50.5624 70.3673 50.5624 70.2208 50.3371C70.1705 50.2626 70.1202 50.188 70.0684 50.1112C69.39 48.8641 69.7024 47.6241 69.6583 46.1243C63.7802 46.1243 57.902 46.1243 51.8458 46.1243ZM72.4708 46.1243C72.3614 47.5316 72.3614 47.5316 72.6583 48.843C72.9561 48.9423 73.169 48.9492 73.4819 48.9504C73.5933 48.951 73.7046 48.9516 73.8194 48.9522C73.9398 48.9523 74.0602 48.9524 74.1843 48.9525C74.3696 48.953 74.3696 48.953 74.5587 48.9534C74.8203 48.954 75.0819 48.9542 75.3434 48.9541C75.6783 48.9541 76.0132 48.9554 76.3481 48.957C76.6678 48.9583 76.9876 48.9582 77.3073 48.9584C77.4877 48.9594 77.4877 48.9594 77.6716 48.9604C77.7833 48.9601 77.895 48.9598 78.0101 48.9595C78.1083 48.9597 78.2066 48.9598 78.3078 48.9599C78.5703 48.9362 78.7235 48.8988 78.9395 48.7493C79.2164 47.9186 79.0333 46.9998 79.0333 46.1243C76.8677 46.1243 74.702 46.1243 72.4708 46.1243ZM44.3458 51.7493C44.3458 55.7711 44.3458 59.793 44.3458 63.9368C45.2739 63.9368 46.202 63.9368 47.1583 63.9368C47.1583 59.9149 47.1583 55.893 47.1583 51.7493C46.2302 51.7493 45.302 51.7493 44.3458 51.7493ZM74.3458 51.7493C74.3458 55.7711 74.3458 59.793 74.3458 63.9368C75.2739 63.9368 76.202 63.9368 77.1583 63.9368C77.1583 59.9149 77.1583 55.893 77.1583 51.7493C76.2302 51.7493 75.302 51.7493 74.3458 51.7493ZM57.4708 59.2493C57.4708 62.6524 57.4708 66.0555 57.4708 69.5618C59.6364 69.5618 61.802 69.5618 64.0333 69.5618C64.0333 66.1586 64.0333 62.7555 64.0333 59.2493C61.8677 59.2493 59.702 59.2493 57.4708 59.2493ZM42.5645 66.9368C42.2877 67.7674 42.4708 68.6862 42.4708 69.5618C44.6364 69.5618 46.802 69.5618 49.0333 69.5618C49.1427 68.1544 49.1427 68.1544 48.8458 66.843C48.548 66.7437 48.3351 66.7368 48.0222 66.7356C47.9108 66.735 47.7994 66.7344 47.6847 66.7338C47.5643 66.7337 47.4438 66.7336 47.3198 66.7335C47.1344 66.733 47.1344 66.733 46.9453 66.7326C46.6838 66.732 46.4222 66.7318 46.1607 66.7319C45.8258 66.7319 45.4909 66.7306 45.156 66.729C44.8362 66.7277 44.5165 66.7278 44.1967 66.7276C44.0765 66.727 43.9563 66.7263 43.8324 66.7256C43.6649 66.726 43.6649 66.726 43.494 66.7265C43.3958 66.7263 43.2975 66.7262 43.1963 66.7261C42.9338 66.7498 42.7806 66.7872 42.5645 66.9368ZM72.5645 66.9368C72.2877 67.7674 72.4708 68.6862 72.4708 69.5618C74.6364 69.5618 76.802 69.5618 79.0333 69.5618C79.1427 68.1544 79.1427 68.1544 78.8458 66.843C78.548 66.7437 78.3351 66.7368 78.0222 66.7356C77.9108 66.735 77.7994 66.7344 77.6847 66.7338C77.5643 66.7337 77.4439 66.7336 77.3198 66.7335C77.1344 66.733 77.1344 66.733 76.9453 66.7326C76.6838 66.732 76.4222 66.7318 76.1607 66.7319C75.8258 66.7319 75.4909 66.7306 75.156 66.729C74.8362 66.7277 74.5165 66.7278 74.1967 66.7276C74.0765 66.727 73.9563 66.7263 73.8324 66.7256C73.6649 66.726 73.6649 66.726 73.494 66.7265C73.3958 66.7263 73.2975 66.7262 73.1963 66.7261C72.9338 66.7498 72.7806 66.7872 72.5645 66.9368ZM39.5645 72.3743C39.5645 73.3024 39.5645 74.2305 39.5645 75.1868C43.772 75.1868 47.9795 75.1868 52.3145 75.1868C52.8027 74.2592 53.2871 73.3285 53.7208 72.3743C49.0492 72.3743 44.3777 72.3743 39.5645 72.3743ZM57.002 72.3743C56.5139 73.3018 56.0295 74.2325 55.5958 75.1868C58.9989 75.1868 62.402 75.1868 65.9083 75.1868C65.4596 74.2395 65.004 73.2944 64.502 72.3743C62.027 72.3743 59.552 72.3743 57.002 72.3743ZM67.7833 72.3743C68.232 73.3215 68.6876 74.2666 69.1895 75.1868C73.397 75.1868 77.6045 75.1868 81.9395 75.1868C81.9395 74.2586 81.9395 73.3305 81.9395 72.3743C77.268 72.3743 72.5964 72.3743 67.7833 72.3743Z" fill="#FFFEFD"/>
    <path d="M66.9317 37.6866C67.3645 37.8916 67.5625 38.1081 67.7755 38.5304C67.8532 39.0505 67.8434 39.5121 67.6173 39.9894C67.3265 40.2959 67.0833 40.4765 66.6596 40.5398C66.0832 40.5405 65.6836 40.541 65.2442 40.1241C64.8796 39.614 64.8889 39.138 64.963 38.5304C65.3718 37.6673 66.0553 37.5797 66.9317 37.6866Z" fill="#FFFEFD"/>
    <path d="M61.3067 37.6866C61.7395 37.8916 61.9375 38.1081 62.1505 38.5304C62.2282 39.0505 62.2184 39.5121 61.9923 39.9894C61.7015 40.2959 61.4583 40.4765 61.0346 40.5398C60.4582 40.5405 60.0586 40.541 59.6192 40.1241C59.2546 39.614 59.2639 39.138 59.338 38.5304C59.7468 37.6673 60.4303 37.5797 61.3067 37.6866Z" fill="#FFFEFD"/>
    <path d="M55.6817 37.6866C56.1145 37.8916 56.3125 38.1081 56.5255 38.5304C56.6032 39.0505 56.5934 39.5121 56.3673 39.9894C56.0765 40.2959 55.8333 40.4765 55.4096 40.5398C54.8332 40.5405 54.4336 40.541 53.9942 40.1241C53.6296 39.614 53.6389 39.138 53.713 38.5304C54.1218 37.6673 54.8053 37.5797 55.6817 37.6866Z" fill="#FFFEFD"/>
  </g>
  <defs>
    <filter id="filter0_d_344_35648" x="0.428127" y="0.451565" width="120.644" height="120.626" filterUnits="userSpaceOnUse" color-interpolation-filters="sRGB">
      <feFlood flood-opacity="0" result="BackgroundImageFix"/>
      <feColorMatrix in="SourceAlpha" type="matrix" values="0 0 0 0 0 0 0 0 0 0 0 0 0 0 0 0 0 0 127 0" result="hardAlpha"/>
      <feMorphology radius="6.75" operator="dilate" in="SourceAlpha" result="effect1_dropShadow_344_35648"/>
      <feOffset dy="6.75"/>
      <feGaussianBlur stdDeviation="12.2625"/>
      <feComposite in2="hardAlpha" operator="out"/>
      <feColorMatrix type="matrix" values="0 0 0 0 0.341176 0 0 0 0 0.133333 0 0 0 0 0.294118 0 0 0 0.3 0"/>
      <feBlend mode="normal" in2="BackgroundImageFix" result="effect1_dropShadow_344_35648"/>
      <feBlend mode="normal" in="SourceGraphic" in2="effect1_dropShadow_344_35648" result="shape"/>
    </filter>
    <linearGradient id="paint0_linear_344_35648" x1="60.7511" y1="26.9766" x2="60.7511" y2="81.0518" gradientUnits="userSpaceOnUse">
      <stop stop-color="#AB8357"/>
      <stop offset="1" stop-color="#E5B888"/>
    </linearGradient>
  </defs>
</svg>